<?xml version="1.0" standalone="no"?>
<!DOCTYPE svg PUBLIC "-//W3C//DTD SVG 20010904//EN"
 "http://www.w3.org/TR/2001/REC-SVG-20010904/DTD/svg10.dtd">
<svg version="1.0" xmlns="http://www.w3.org/2000/svg"
 width="960.000000pt" height="960.000000pt" viewBox="0 0 960.000000 960.000000"
 preserveAspectRatio="xMidYMid meet">
<metadata>
Created by potrace 1.14, written by Peter Selinger 2001-2017
</metadata>
<g transform="translate(0.000000,960.000000) scale(0.100000,-0.100000)"
fill="#000000" stroke="none">
<path d="M6046 6845 c-9 -16 -25 -43 -36 -60 -11 -16 -23 -37 -27 -45 -5 -8
-37 -64 -73 -123 -36 -59 -69 -117 -75 -128 -11 -21 -4 -21 -180 -2 -77 8
-509 8 -610 1 -125 -10 -380 -44 -460 -62 -134 -29 -259 -60 -345 -86 -58 -17
-109 -32 -115 -34 -5 -2 -17 -6 -25 -9 -8 -4 -55 -21 -105 -38 -49 -17 -106
-38 -125 -46 -19 -8 -44 -19 -55 -23 -11 -5 -69 -32 -129 -60 -61 -28 -115
-52 -120 -53 -6 -1 -13 -5 -16 -9 -3 -4 -35 -22 -70 -40 -65 -34 -82 -44 -177
-105 -28 -18 -54 -33 -57 -33 -3 0 -14 -7 -23 -14 -10 -8 -52 -39 -93 -68
-152 -109 -299 -241 -432 -389 -60 -68 -168 -214 -168 -228 0 -6 -4 -11 -9
-11 -11 0 -140 -254 -146 -286 -2 -10 -4 -19 -5 -19 -2 0 -3 -3 -29 -105 -11
-41 -24 -97 -28 -125 -10 -66 -10 -286 0 -353 7 -51 6 -54 -35 -110 -52 -69
-54 -71 -76 -98 -9 -12 -28 -36 -42 -54 -131 -173 -195 -256 -202 -258 -4 -2
-8 -10 -8 -18 0 -8 -4 -14 -8 -14 -4 0 -16 -13 -25 -30 -10 -16 -23 -35 -30
-42 -7 -7 -26 -31 -42 -53 -17 -22 -34 -45 -40 -51 -5 -6 -19 -23 -30 -38 -54
-74 -130 -171 -137 -174 -5 -2 -8 -10 -8 -18 0 -8 -3 -14 -7 -14 -5 0 -19 -16
-32 -35 -13 -19 -32 -45 -43 -57 -11 -13 -34 -43 -51 -68 -17 -25 -33 -47 -37
-50 -3 -3 -35 -43 -70 -90 -35 -47 -67 -87 -70 -90 -3 -3 -24 -30 -45 -60 -22
-30 -46 -62 -52 -70 -7 -8 -78 -100 -158 -205 -80 -104 -151 -197 -158 -205
-6 -8 -30 -40 -52 -70 -21 -30 -42 -57 -45 -60 -4 -3 -47 -59 -97 -125 -50
-66 -131 -172 -179 -236 -49 -64 -98 -128 -109 -144 -11 -15 -27 -35 -35 -44
-8 -9 -42 -53 -74 -96 -33 -44 -65 -85 -70 -91 -6 -6 -18 -22 -26 -34 -17 -25
-92 -122 -100 -130 -3 -3 -14 -18 -23 -33 -17 -27 -26 -38 -70 -89 -9 -12 -17
-25 -17 -30 0 -4 2124 -8 4720 -8 2596 0 4720 3 4720 8 0 4 -9 18 -20 32 -11
14 -20 31 -20 38 0 6 -4 12 -10 12 -5 0 -10 4 -10 9 0 5 -31 61 -70 125 -38
63 -70 119 -70 125 0 5 -3 11 -8 13 -7 3 -92 143 -121 200 -8 16 -18 28 -23
28 -4 0 -8 4 -8 9 0 12 -221 384 -233 392 -5 3 -8 8 -7 10 3 4 -41 80 -77 136
-13 19 -23 38 -23 43 0 5 -6 15 -14 22 -7 8 -23 32 -35 54 -40 74 -59 106 -74
122 -9 9 -15 19 -15 22 0 12 -26 60 -32 60 -4 0 -10 8 -13 18 -4 9 -17 35 -31
57 -14 22 -35 59 -47 83 -13 23 -26 42 -31 42 -4 0 -8 6 -8 14 0 7 -7 19 -15
26 -8 7 -12 16 -9 21 3 5 0 9 -5 9 -6 0 -11 4 -11 8 0 5 -38 71 -84 148 -141
232 -236 395 -236 404 0 5 -4 10 -8 12 -7 3 -93 142 -129 208 -20 36 -180 303
-190 316 -8 10 -18 26 -52 88 -10 17 -40 67 -67 111 -70 114 -72 117 -86 145
-7 14 -15 27 -18 30 -10 9 -41 65 -47 83 -3 9 -9 17 -13 17 -4 0 -13 14 -20
30 -7 17 -16 30 -21 30 -5 0 -8 3 -7 8 1 4 -18 41 -42 82 -25 41 -49 83 -55
93 -38 66 -170 285 -179 296 -14 19 -18 40 -15 86 5 74 2 290 -5 318 -3 15 -8
39 -12 55 -33 165 -139 361 -267 495 -71 73 -169 157 -185 157 -5 0 -12 7 -16
15 -3 8 -12 15 -20 15 -8 0 -21 7 -29 15 -8 8 -59 37 -113 65 -97 50 -98 51
-143 128 -25 42 -49 79 -53 80 -4 2 -8 8 -8 13 0 9 -120 213 -185 314 -18 28
-34 57 -37 65 -3 11 -10 7 -22 -15z m-661 -719 c39 -3 79 -8 90 -10 11 -2 41
-7 68 -10 26 -4 47 -11 47 -16 0 -5 -38 -72 -85 -150 -47 -78 -85 -145 -85
-150 0 -11 -22 -17 -80 -24 -25 -3 -58 -8 -75 -10 -16 -2 -57 -7 -90 -10 -33
-4 -71 -8 -85 -11 -14 -2 -50 -7 -80 -10 -30 -3 -65 -7 -77 -9 -19 -4 -54 -8
-188 -22 -16 -1 -30 -3 -30 -4 0 -1 -13 -3 -30 -5 -51 -7 -139 -17 -165 -20
-31 -3 -123 -15 -170 -22 -48 -7 -89 -11 -128 -12 -34 -1 -44 -15 -57 -79 -3
-15 -9 -38 -12 -52 -3 -14 -6 -32 -8 -40 -1 -8 -8 -35 -14 -60 -7 -25 -15 -52
-16 -60 -6 -27 -47 -205 -51 -220 -3 -13 -27 -118 -39 -170 -2 -8 -12 -53 -23
-100 -12 -47 -35 -143 -51 -215 -46 -193 -41 -179 -60 -158 -9 10 -27 34 -41
53 -13 19 -27 37 -30 40 -3 3 -31 39 -62 80 -50 67 -111 147 -168 220 -11 14
-40 52 -64 85 -25 33 -49 65 -53 70 -5 6 -31 39 -58 75 -27 36 -55 71 -63 79
-7 8 -10 22 -6 34 6 19 40 74 54 87 3 3 16 19 28 35 77 103 200 228 302 310
41 33 77 63 78 68 2 4 10 7 18 7 8 0 14 4 14 9 0 5 14 14 30 21 17 7 30 16 30
21 0 5 7 9 15 9 8 0 15 3 15 8 0 4 10 12 23 18 12 6 60 31 107 56 47 24 121
59 165 77 44 18 86 38 93 43 6 6 12 8 12 5 0 -3 33 5 73 19 39 14 79 27 87 29
8 2 51 13 95 25 88 22 100 25 195 41 83 13 117 17 215 25 44 3 81 7 82 8 5 4
242 -2 308 -8z"/>
</g>
</svg>
